<svg width="477" height="120" viewBox="0 0 477 120" fill="none" xmlns="http://www.w3.org/2000/svg">
<path d="M52.8561 120C77.6868 120 98.4517 103.09 102.663 79.3572H78.4129C75.3635 90.1854 65.0536 96.8603 52.8561 96.8603C34.8502 96.8603 23.2334 84.5488 23.2334 66.0074C23.2334 47.466 34.8502 35.1545 52.8561 35.1545C65.0536 35.1545 75.2183 41.8294 78.4129 52.6576H102.663C98.3065 28.7763 77.5416 12.0148 52.8561 12.0148C22.217 12.0148 0 35.4512 0 66.0074C0 96.5637 22.217 120 52.8561 120Z" fill="white"/>
<path d="M174.13 115.765H201.139L171.516 77.3473C182.262 71.2658 189.522 59.9926 189.522 47.5328C189.522 27.8047 173.985 11.9333 154.672 11.9333H138.699H115.466V115.765H138.699V81.649H147.702L174.13 115.765ZM138.699 34.183H154.672C161.061 34.183 166.289 39.9679 166.289 47.5328C166.289 55.0977 161.061 60.8826 154.672 60.8826H138.699V34.183Z" fill="white"/>
<path d="M276.994 115.765H302.405L269.298 11.9333H239.675L206.567 115.765H231.979L236.625 99.4487H272.347L276.994 115.765ZM243.16 77.199L254.486 37.8912L265.812 77.199H243.16Z" fill="white"/>
<path d="M330.437 12.4932C325.598 12.4932 319.979 12.0148 313.11 12.0148C310.613 12.0148 308.739 12.6527 308.739 13.9283C308.739 15.0445 309.52 15.8418 312.642 16.6391C319.51 18.3931 322.164 21.1038 322.476 26.5253C322.788 30.6712 322.788 40.0791 322.788 55.068C322.788 86.6403 322.008 98.44 321.54 103.383C321.383 105.456 321.071 109.124 312.642 111.197C310.144 111.834 308.427 113.11 308.427 114.386C308.427 115.342 309.676 115.98 312.798 115.98C316.076 115.98 325.13 115.023 331.374 115.023C337.306 115.023 342.145 115.502 346.203 115.502C349.169 115.502 350.574 114.545 350.574 113.588C350.574 112.153 349.169 111.037 346.828 110.559C336.681 108.645 336.369 105.456 336.213 100.513C336.057 95.8887 335.432 73.5649 335.589 70.5352C335.745 69.8974 336.369 68.6218 336.837 68.6218C340.115 68.1434 347.608 68.1434 350.574 68.1434C353.696 68.1434 359.316 68.6218 361.033 68.9407C363.999 69.738 365.872 70.5352 367.433 76.5946C368.057 78.827 368.994 79.9431 369.774 79.9431C371.335 79.9431 372.116 78.0297 372.116 76.2756C372.116 72.7676 371.804 71.3325 371.804 63.6786C371.804 60.8084 372.584 55.7058 372.584 53.6329C372.584 51.7194 372.272 50.1249 371.179 50.1249C369.774 50.1249 369.15 51.7194 368.213 53.9518C366.028 59.3733 364.623 60.8084 359.784 61.2868C356.038 61.6057 343.394 61.4462 337.306 61.4462C336.525 61.4462 335.745 59.8517 335.745 55.5464C335.745 45.0223 336.057 24.1335 336.369 20.3066C336.369 19.8282 337.306 18.3931 338.867 18.2336C342.145 17.9147 357.755 17.7553 363.062 18.5525C368.213 19.3498 369.931 20.7849 372.428 28.5983C373.365 31.7874 374.613 33.5414 375.862 33.5414C377.267 33.5414 378.204 31.309 378.048 29.2361C377.892 23.8146 377.267 18.2336 377.579 13.6094C377.579 12.6527 376.487 11.8554 375.706 12.0148C374.457 12.0148 360.096 12.4932 350.73 12.4932H330.437Z" fill="white"/>
<path d="M391.876 11.1619C388.286 11.1619 384.851 14.0322 384.851 17.5402C384.851 21.5266 387.193 21.8455 388.598 22.1644C392.969 23.759 395.31 24.3968 395.31 29.4994C395.31 33.8047 391.252 37.9506 385.944 40.8208C385.164 41.4586 383.915 42.2559 383.915 43.3721C383.915 44.6477 385.164 44.9666 386.725 44.9666C389.222 44.9666 404.052 39.5451 404.052 25.9914C404.052 18.178 399.993 11.1619 391.876 11.1619Z" fill="white"/>
<path d="M442.19 49.2719C437.975 49.2719 428.766 50.8665 421.585 55.3313C413.936 59.9555 405.038 69.0445 405.038 84.6712C405.038 92.644 407.536 100.776 412.531 106.517C417.37 111.779 424.551 115.287 432.044 115.287C437.195 115.287 445.156 113.852 452.336 107.314C452.648 107.314 453.273 107.633 453.273 108.271C453.273 110.503 452.961 113.373 452.961 114.808C452.961 115.606 454.053 116.881 454.678 116.881C455.458 116.881 456.707 116.562 460.297 115.287C463.263 114.171 471.381 112.576 474.346 112.098C475.127 111.938 477 109.227 477 108.111C477 107.952 476.688 107.154 476.063 107.154C474.502 107.314 469.351 108.43 467.634 108.43C466.697 108.43 465.449 107.792 465.136 101.892C465.136 98.8628 464.824 96.3115 464.824 65.5365C464.824 16.7429 465.449 11.0025 466.229 2.5513C466.385 1.1162 465.449 0 464.98 0C464.356 0 463.888 0.159463 462.951 0.478371C458.892 2.07293 450.619 4.46477 447.029 4.94314C446.092 5.1026 444.375 7.01607 444.375 7.6539C444.375 7.97281 444.531 8.29173 445.936 9.08901C453.117 12.9159 453.117 14.8294 453.273 15.6267C453.741 19.4537 454.21 43.8504 453.429 48.1557C453.273 48.953 452.805 50.0692 452.18 49.9098C450.307 49.5909 447.81 49.2719 442.19 49.2719ZM436.415 54.534C439.537 54.534 445.468 56.288 449.839 60.7528C451.712 62.6662 453.117 65.5365 453.273 66.8121C453.741 74.3065 453.897 83.0766 453.741 93.2818C453.585 98.3844 451.556 103.487 451.244 103.806C448.434 105.879 444.844 107.633 439.849 107.633C426.424 107.633 417.682 92.9629 417.682 80.2064C417.682 71.2769 421.273 63.1446 424.239 60.1149C427.049 57.2447 431.419 54.534 436.415 54.534Z" fill="white"/>
</svg>
