<svg width="157" height="137" viewBox="0 0 157 137" fill="none" xmlns="http://www.w3.org/2000/svg">
<path d="M58.1782 137C85.5092 137 108.365 118.679 113 92.9643H86.3083C82.9519 104.696 71.604 111.929 58.1782 111.929C38.3593 111.929 25.5728 98.5893 25.5728 78.5C25.5728 58.4107 38.3593 45.0714 58.1782 45.0714C71.604 45.0714 82.7921 52.3036 86.3083 64.0357H113C108.205 38.1607 85.3494 20 58.1782 20C24.454 20 0 45.3929 0 78.5C0 111.607 24.454 137 58.1782 137Z" fill="white"/>
<path d="M138.618 24.8717C136.393 24.8717 131.529 25.6767 127.738 27.9304C123.698 30.2646 119 34.8526 119 42.7408C119 46.7653 120.319 50.8704 122.957 53.7681C125.512 56.4243 129.304 58.1951 133.26 58.1951C135.98 58.1951 140.184 57.4706 143.976 54.1705C144.141 54.1705 144.471 54.3315 144.471 54.6535C144.471 55.7803 144.306 57.2292 144.306 57.9536C144.306 58.3561 144.883 59 145.213 59C145.625 59 146.284 58.839 148.18 58.1951C149.746 57.6316 154.033 56.8267 155.599 56.5852C156.011 56.5048 157 55.1364 157 54.573C157 54.4925 156.835 54.09 156.505 54.09C155.681 54.1705 152.961 54.734 152.054 54.734C151.56 54.734 150.9 54.412 150.735 51.4338C150.735 49.9045 150.57 48.6166 150.57 33.0818C150.57 8.45155 150.9 5.55387 151.312 1.28784C151.395 0.563421 150.9 -1.91647e-05 150.653 -1.91647e-05C150.323 -1.91647e-05 150.076 0.0804756 149.581 0.241456C147.438 1.04637 143.069 2.25373 141.174 2.49521C140.679 2.5757 139.772 3.54159 139.772 3.86356C139.772 4.02454 139.855 4.18552 140.597 4.58798C144.388 6.51977 144.388 7.48566 144.471 7.88812C144.718 9.8199 144.965 22.135 144.553 24.3083C144.471 24.7108 144.223 25.2742 143.894 25.1937C142.905 25.0327 141.586 24.8717 138.618 24.8717ZM135.568 27.528C137.217 27.528 140.349 28.4134 142.657 30.6671C143.646 31.633 144.388 33.0818 144.471 33.7258C144.718 37.5089 144.8 41.9359 144.718 47.0873C144.636 49.663 143.564 52.2387 143.399 52.3997C141.915 53.4461 140.02 54.3315 137.382 54.3315C130.293 54.3315 125.677 46.9263 125.677 40.487C125.677 35.9795 127.573 31.8745 129.139 30.3451C130.623 28.8963 132.931 27.528 135.568 27.528Z" fill="white"/>
</svg>
