<?xml version="1.0" encoding="UTF-8"?>
<svg id="a" data-name="Layer 1" xmlns="http://www.w3.org/2000/svg" width="3.244in" height="2.141in" viewBox="0 0 233.6 154.143">
  <g>
    <path d="M1.51,16.2C1.51,7.1,8.31,0,17.71,0s14.1,5.2,15.3,12.6h-8.2c-.8-3-3.7-4.8-7.1-4.8-5,0-8.3,3.5-8.3,8.4s3.3,8.4,8.3,8.4,6.3-1.9,7.1-4.8h8.2c-1.2,7.3-7.6,12.6-15.3,12.6S1.51,25.3,1.51,16.2Z" fill="#fff"/>
    <path d="M36.81,16.2C36.81,7.1,44.01.1,53.01.1s16.2,7,16.2,16.2-7.2,16.2-16.2,16.2-16.2-7-16.2-16.2h0v-.1ZM61.41,16.2c0-5-3.6-8.4-8.4-8.4s-8.4,3.5-8.4,8.4,3.6,8.4,8.4,8.4,8.4-3.5,8.4-8.4Z" fill="#fff"/>
    <path d="M105.51,31.7h-7.9V13.5l-5.4,13.8h-5.7l-5.4-13.8v18.2h-7.9V.7h9.4l6.7,17.1L96.01.7h9.4v31h.1Z" fill="#fff"/>
    <path d="M134.21,11.6c0,6.4-4.9,10.8-11.1,10.8h-4.1v9.3h-7.9V.7h12c6.2,0,11.1,4.5,11.1,10.8h0v.1ZM126.31,11.6c0-1.9-1.4-3.3-3.1-3.3h-4.1v6.6h4.1c1.8,0,3.1-1.4,3.1-3.3Z" fill="#fff"/>
    <path d="M156.41,24v7.7h-18.1V.7h7.9v23.3h10.2Z" fill="#fff"/>
    <path d="M179.71,24.3v7.4h-19V.7h18.8v7.4h-10.9v4.4h9.8v7h-9.8v4.7h11.1v.1Z" fill="#fff"/>
    <path d="M201.61,31.7l-4.6-8.1-4.6,8.1h-8.9l9.1-15.8-8.8-15.2h8.9l4.3,7.5,4.3-7.5h8.9l-8.8,15.2,9.1,15.8h-8.9Z" fill="#fff"/>
  </g>
  <g>
    <path d="M12.81,62.479h-2.2v10H2.71v-31h11.9c6.3,0,11.2,4.5,11.2,10.7s-2,7-5.2,8.8l8.5,11.5h-8.9l-7.3-10h-.1ZM10.61,55.579h4c1.9,0,3.2-1.3,3.2-3.4s-1.4-3.4-3.2-3.4h-4s0,6.8,0,6.8Z" fill="#fff"/>
    <path d="M40.51,41.479v31h-7.9v-31s7.9,0,7.9,0Z" fill="#fff"/>
    <path d="M45.51,62.579h7.9c0,2.2,1.3,3.1,3.9,3.1s3.3-.9,3.3-2.1-2.2-2.3-4.9-3.1c-4.3-1.4-9.8-3.5-9.8-10s5-9.5,10.7-9.5,11,3.1,11,10.4h-7.9c0-1.8-1-2.8-3.1-2.8s-2.8.9-2.8,2c0,1.7,2.1,2.4,4.9,3.4,4.3,1.4,9.8,3.5,9.8,9.9s-5,9.5-11.2,9.5-11.8-3.1-11.8-10.6c0,0,0-.2,0-.2Z" fill="#fff"/>
    <path d="M90.11,72.479l-8.9-13.9v13.9h-7.9v-31h7.9v13l8.5-13h8.9l-9.9,15,10.3,15.9h-8.9v.1Z" fill="#fff"/>
  </g>
  <g>
    <path d="M19.8,108.764h-9.9l-1.3,4.5H0l10.1-31h9.5l10.1,31h-8.6l-1.3-4.5ZM17.9,101.964l-3.1-10.7-3.1,10.7h6.2Z" fill="#fff"/>
    <path d="M57,82.264v31h-6.1l-10-16v16h-7.9v-31h6.2l10,16v-16h7.9-.1Z" fill="#fff"/>
    <path d="M80,108.764h-9.9l-1.3,4.5h-8.6l10.1-31h9.5l10.1,31h-8.6s-1.3-4.5-1.3-4.5ZM78.1,101.964l-3.1-10.7-3.1,10.7h6.2Z" fill="#fff"/>
    <path d="M111.3,105.564v7.7h-18.1v-31h7.9v23.3s10.2,0,10.2,0Z" fill="#fff"/>
    <path d="M125.4,99.764v13.5h-7.9v-13.5l-10-17.5h8.9l5,10,5.1-10h8.9s-10,17.5-10,17.5Z" fill="#fff"/>
    <path d="M159.5,89.864h-6.8v23.3h-7.9v-23.3h-6.8v-7.7h21.4v7.7h.1Z" fill="#fff"/>
    <path d="M172,82.264v31h-7.9v-31h7.9Z" fill="#fff"/>
    <path d="M176.2,97.764c0-9.1,6.8-16.2,16.2-16.2s14.1,5.2,15.3,12.6h-8.2c-.8-3-3.7-4.8-7.1-4.8-5,0-8.3,3.5-8.3,8.4s3.3,8.4,8.3,8.4,6.3-1.9,7.1-4.8h8.2c-1.2,7.3-7.6,12.6-15.3,12.6s-16.2-7-16.2-16.2Z" fill="#fff"/>
    <path d="M210.6,103.264h7.9c0,2.2,1.3,3.1,3.9,3.1s3.3-.9,3.3-2.1-2.2-2.3-4.9-3.1c-4.3-1.4-9.8-3.5-9.8-10s5-9.5,10.7-9.5,11,3.1,11,10.4h-7.9c0-1.8-1-2.8-3.1-2.8s-2.8.9-2.8,2c0,1.7,2.1,2.4,4.9,3.4,4.3,1.4,9.8,3.5,9.8,9.9s-5,9.5-11.2,9.5-11.8-3.1-11.8-10.6v-.2h0Z" fill="#fff"/>
  </g>
  <g>
    <path d="M8.231,135.885c0,1.224.137,1.224,1.5,1.224h3.088c1.862,0,3.315-.089,3.861-.27.499-.185.862-.41,1.135-1.59l.409-1.82c.227-.27.999-.27,1.182,0,0,1.091-.183,2.907-.183,4.589,0,1.635.183,3.362.183,4.405-.183.274-.864.274-1.182,0l-.455-1.771c-.227-.817-.59-1.453-1.453-1.723-.636-.185-1.771-.229-3.497-.229h-3.088c-1.363,0-1.5.044-1.5,1.228v6.313c0,4.767.091,5.451,2.77,5.677l1.546.137c.272.181.181.999-.092,1.135-2.679-.092-4.223-.137-6.039-.137-1.999,0-3.543.044-5.679.137-.272-.137-.362-.862-.091-1.135l1.135-.137c2.635-.318,2.726-.91,2.726-5.677v-16.35c0-4.771-.091-5.407-2.726-5.725l-.727-.089c-.272-.185-.181-1.002.091-1.135,1.908.089,3.452.133,5.27.133h8.356c2.907,0,5.542,0,6.132-.133,0,2.086.046,4.268.137,5.995-.137.27-.773.407-1.091.137-.362-2.045-.908-3.728-3.179-4.316-1-.274-2.498-.274-4.406-.274h-2.77c-1.363,0-1.363.092-1.363,1.816v9.586Z" fill="#fff"/>
    <path d="M29.84,146.377c0,3.132.773,5.222,4.225,5.222,1.226,0,2.679-.499,3.678-1.361.592-.547.91-1.228.91-2.637v-7.448c0-2.951-.318-3.044-1.681-3.587l-.592-.229c-.318-.181-.318-.817.046-.999,1.818-.044,4.314-.362,5.314-.817.227.048.362.137.409.318-.091.865-.137,2.271-.137,3.953v7.629c0,3.587.137,4.952,1.409,4.952.544,0,1.135-.092,1.771-.229.272.229.318,1.135-.046,1.317-1.771.366-4.406.817-5.95,1.683-.227,0-.453-.137-.544-.318v-1.864c0-.407-.137-.636-.409-.636-1.363.865-3.589,2.363-6.268,2.363-3.998,0-5.495-1.997-5.495-5.677v-7.585c0-2.862,0-3.269-1.363-3.861l-.545-.229c-.272-.226-.227-.862.091-.999,2.089-.044,3.861-.451,4.861-.817.272.048.409.137.453.318-.091.773-.137,1.727-.137,3.953v7.585Z" fill="#fff"/>
    <path d="M51.382,140.016c0-1.771,0-1.997-1.226-2.814l-.409-.274c-.181-.181-.181-.68.044-.817,1.045-.362,3.633-1.542,4.543-2.226.181,0,.409.092.499.318-.091,1.047-.091,1.727-.091,2.134,0,.274.181.503.499.503,1.908-1.183,4.042-2.319,6.359-2.319,3.768,0,5.314,2.589,5.314,5.632v7.811c0,3.273.091,3.728,1.725,3.953l.999.137c.318.226.227.999-.091,1.135-1.363-.092-2.679-.137-4.27-.137-1.635,0-2.997.044-4.223.137-.318-.137-.409-.91-.091-1.135l.862-.137c1.681-.274,1.727-.68,1.727-3.953v-6.764c0-2.589-1.182-4.497-4.27-4.497-1.725,0-3.225.725-3.861,1.59-.59.769-.68,1.405-.68,2.722v6.949c0,3.273.091,3.68,1.725,3.953l.817.137c.318.226.227.999-.091,1.135-1.226-.092-2.542-.137-4.133-.137-1.635,0-2.997.044-4.27.137-.318-.137-.409-.91-.091-1.135l.954-.137c1.681-.226,1.725-.68,1.725-3.953v-7.947Z" fill="#fff"/>
    <path d="M89.841,146.421c0,3.587.046,5.27,1.318,5.27.499,0,1.272-.229,1.953-.455.318.089.364,1.224-.046,1.453-1.906.27-4.723.954-5.995,1.453-.272,0-.499-.137-.499-.366v-.769c0-.68,0-1.228-.091-1.409h-.181c-1.999,1.361-3.543,2.089-5.723,2.089-5.042,0-8.402-3.953-8.402-8.72,0-6.357,4.813-10.447,10.991-10.447,1.544,0,2.542.229,3.044.41.226,0,.272-.274.272-.636v-6.86c0-2.677-.046-2.951-1.409-3.768l-.453-.274c-.227-.133-.227-.769,0-.906,1.135-.366,3.269-1.047,4.906-1.908.181,0,.362.089.453.274-.044,1.361-.137,3.632-.137,5.629v19.941ZM86.481,139.609c0-.91-.181-1.317-.499-1.771-.682-.954-2.045-1.908-3.817-1.908-4.133,0-6.267,3.587-6.267,7.541,0,4.131,2.315,8.036,6.768,8.036,1.226,0,2.77-.544,3.497-1.268.272-.274.318-.954.318-1.683v-8.946Z" fill="#fff"/>
  </g>
</svg>